<svg xmlns="http://www.w3.org/2000/svg" viewBox="0 0 48 60" x="0px" y="0px"><title>menu</title><g><path d="M43,30H5a3,3,0,0,1-3-3V21a3,3,0,0,1,3-3H43a3,3,0,0,1,3,3v6A3,3,0,0,1,43,30ZM5,20a1,1,0,0,0-1,1v6a1,1,0,0,0,1,1H43a1,1,0,0,0,1-1V21a1,1,0,0,0-1-1ZM43,46H5a3,3,0,0,1-3-3V36a3,3,0,0,1,3-3H43a3,3,0,0,1,3,3v7A3,3,0,0,1,43,46ZM5,35a1,1,0,0,0-1,1v7a1,1,0,0,0,1,1H43a1,1,0,0,0,1-1V36a1,1,0,0,0-1-1ZM43,15H5a3,3,0,0,1-3-3V5A3,3,0,0,1,5,2H43a3,3,0,0,1,3,3v7A3,3,0,0,1,43,15ZM5,4A1,1,0,0,0,4,5v7a1,1,0,0,0,1,1H43a1,1,0,0,0,1-1V5a1,1,0,0,0-1-1ZM17,6H7V8H17Zm5,0H19V8h3Z"/></g><text x="0" y="63" fill="#000000" font-size="5px" font-weight="bold" font-family="'Helvetica Neue', Helvetica, Arial-Unicode, Arial, Sans-serif">Created by MHD AZMI DWIPRANATA</text><text x="0" y="68" fill="#000000" font-size="5px" font-weight="bold" font-family="'Helvetica Neue', Helvetica, Arial-Unicode, Arial, Sans-serif">from the Noun Project</text></svg>